Coordinates
version=1
nRows=49
nColumns=12
inDegrees=yes

Units are S.I. units (second, meters, Newtons, ...)
Angles are in degrees

endheader
time	SC_y	SC_z	SC_x	AC_y	AC_z	AC_x	GH_y	GH_z	GH_yy	EL_x	PS_y
       0.0              -32.57          9.184          73.92          38.04         -3.807         -4.432          28.48          23.94          31.51          71.54          65.16
  0.006828              -32.57          9.182          73.92          38.05         -3.807         -4.433           28.5          23.94           31.5          71.54          65.18
   0.01366              -32.57          9.181          73.92          38.05         -3.807         -4.435          28.52          23.95          31.49          71.55          65.19
   0.02048              -32.57           9.18          73.91          38.05         -3.807         -4.436          28.54          23.96          31.47          71.56          65.21
   0.02731              -32.57          9.179          73.91          38.06         -3.807         -4.437          28.56          23.97          31.46          71.56          65.23
   0.03414              -32.57          9.177          73.91          38.06         -3.807         -4.438          28.58          23.98          31.45          71.57          65.24
   0.04097              -32.57          9.176          73.91          38.06         -3.807          -4.44           28.6          23.99          31.43          71.58          65.26
    0.0478              -32.56          9.174           73.9          38.07         -3.806         -4.441          28.63           24.0          31.42          71.59          65.28
   0.05463              -32.56          9.173           73.9          38.07         -3.806         -4.443          28.66          24.01           31.4           71.6           65.3
   0.06145              -32.56          9.171           73.9          38.08         -3.806         -4.444          28.69          24.02          31.39          71.61          65.33
   0.06828              -32.56          9.169           73.9          38.08         -3.806         -4.446          28.72          24.04          31.37          71.62          65.35
   0.07511              -32.56          9.167          73.89          38.09         -3.806         -4.448          28.75          24.05          31.35          71.63          65.38
   0.08194              -32.55          9.164          73.89          38.09         -3.806          -4.45          28.79          24.06          31.32          71.64          65.41
   0.08877              -32.55          9.162          73.89           38.1         -3.806         -4.453          28.82          24.08           31.3          71.65          65.44
    0.0956              -32.55          9.159          73.88          38.11         -3.806         -4.455          28.87           24.1          31.28          71.67          65.47
    0.1024              -32.55          9.156          73.88          38.12         -3.805         -4.458          28.91          24.12          31.25          71.68          65.51
    0.1093              -32.54          9.153          73.87          38.12         -3.805         -4.461          28.96          24.14          31.22           71.7          65.55
    0.1161              -32.54           9.15          73.87          38.13         -3.805         -4.464          29.02          24.16          31.19          71.72          65.59
    0.1229              -32.54          9.146          73.86          38.14         -3.805         -4.467          29.08          24.19          31.15          71.74          65.64
    0.1297              -32.53          9.142          73.85          38.15         -3.805         -4.471          29.14          24.22          31.11          71.76          65.69
    0.1366              -32.53          9.138          73.85          38.17         -3.804         -4.475          29.21          24.25          31.07          71.78          65.75
    0.1434              -32.52          9.133          73.84          38.18         -3.804          -4.48          29.29          24.28          31.02          71.81          65.81
    0.1502              -32.52          9.127          73.83          38.19         -3.804         -4.485          29.38          24.32          30.97          71.84          65.88
    0.1571              -32.51          9.121          73.82          38.21         -3.803          -4.49          29.47          24.36          30.91          71.87          65.96
    0.1639              -32.51          9.115          73.81          38.23         -3.803         -4.497          29.58           24.4          30.85          71.91          66.04
    0.1707               -32.5          9.107           73.8          38.25         -3.802         -4.504           29.7          24.45          30.77          71.95          66.14
    0.1775              -32.49          9.099          73.79          38.27         -3.802         -4.511          29.83          24.51          30.69          71.99          66.24
    0.1844              -32.48          9.089          73.77          38.29         -3.801          -4.52          29.98          24.57           30.6          72.04          66.36
    0.1912              -32.47          9.079          73.75          38.32         -3.801          -4.53          30.15          24.65           30.5           72.1           66.5
     0.198              -32.46          9.067          73.74          38.35           -3.8         -4.541          30.34          24.73          30.38          72.16          66.65
    0.2048              -32.44          9.053          73.71          38.39         -3.799         -4.554          30.56          24.82          30.25          72.24          66.83
    0.2117              -32.43          9.037          73.69          38.43         -3.798         -4.569          30.81          24.93           30.1          72.32          67.03
    0.2185              -32.41          9.019          73.66          38.48         -3.797         -4.586           31.1          25.05          29.93          72.42          67.26
    0.2253              -32.39          8.997          73.63          38.54         -3.796         -4.606          31.44          25.19          29.72          72.53          67.53
    0.2322              -32.36          8.972          73.59           38.6         -3.794         -4.629          31.83          25.36          29.48          72.66          67.85
     0.239              -32.33          8.943          73.54          38.68         -3.793         -4.656           32.3          25.56           29.2          72.82          68.22
    0.2458               -32.3          8.908          73.49          38.77         -3.791         -4.689          32.85           25.8          28.87           73.0          68.66
    0.2526              -32.26          8.867          73.42          38.88         -3.788         -4.727          33.51          26.08          28.47          73.23          69.19
    0.2595              -32.21          8.816          73.34          39.02         -3.785         -4.775          34.31          26.42          27.98           73.5          69.83
    0.2663              -32.15          8.754          73.25          39.18         -3.781         -4.832          35.29          26.84          27.39          73.82          70.62
    0.2731              -32.07          8.678          73.13          39.38         -3.777         -4.903           36.5          27.35          26.66          74.23          71.58
      0.28              -31.98          8.583          72.98          39.63         -3.771         -4.991          38.01          27.99          25.75          74.74          72.79
    0.2868              -31.86          8.463          72.79          39.95         -3.764         -5.103           39.9           28.8           24.6          75.37          74.31
    0.2936              -31.71          8.311          72.55          40.35         -3.755         -5.244          42.32          29.83          23.14          76.18          76.24
    0.3004              -31.51          8.117          72.25          40.86         -3.743         -5.425           45.4          31.15          21.28          77.22          78.72
    0.3073              -31.27          7.867          71.86          41.52         -3.728         -5.658          49.37          32.84          18.88          78.55          81.89
    0.3141              -30.95          7.548          71.36          42.36         -3.709         -5.955          54.43          34.99          15.82          80.25          85.94
    0.3209              -30.55          7.146          70.73          43.42         -3.685         -6.328          60.79          37.71          11.97          82.39          91.04
    0.3278              -30.07          6.657          69.96          44.72         -3.656         -6.783          68.55          41.01          7.282          84.99          97.25
